<?xml version="1.0" standalone="no"?>
<!DOCTYPE svg PUBLIC "-//W3C//DTD SVG 20010904//EN"
 "http://www.w3.org/TR/2001/REC-SVG-20010904/DTD/svg10.dtd">
<svg version="1.0" xmlns="http://www.w3.org/2000/svg"
 width="260.000000pt" height="260.000000pt" viewBox="0 0 260.000000 260.000000"
 preserveAspectRatio="xMidYMid meet">
<metadata>
Created by potrace 1.14, written by Peter Selinger 2001-2017
</metadata>
<g transform="translate(0.000000,260.000000) scale(0.100000,-0.100000)"
fill="#000000" stroke="none">
<path d="M1114 2084 l1 -507 231 -231 230 -232 323 1 323 0 34 40 c58 68 334
417 334 421 0 3 -141 4 -312 4 -172 -1 -400 -1 -505 0 l-193 0 0 324 0 324
-42 33 c-24 19 -45 36 -48 39 -3 3 -36 30 -75 60 -38 30 -79 63 -90 72 -49 42
-200 158 -206 158 -3 0 -5 -228 -5 -506z"/>
<path d="M371 1481 c-5 -3 -90 -107 -188 -231 l-180 -225 507 -3 507 -2 0
-325 c0 -286 1 -327 15 -338 9 -6 43 -32 75 -57 32 -25 60 -48 63 -51 21 -24
302 -240 306 -236 3 3 6 232 6 508 l-1 503 -231 230 -231 231 -320 1 c-175 0
-323 -2 -328 -5z"/>
</g>
</svg>
